<?xml version="1.0" encoding="utf-8"?>
<!-- Generator: Adobe Illustrator 16.0.0, SVG Export Plug-In . SVG Version: 6.00 Build 0)  -->
<!DOCTYPE svg PUBLIC "-//W3C//DTD SVG 1.1//EN" "http://www.w3.org/Graphics/SVG/1.1/DTD/svg11.dtd">
<svg version="1.1" id="Layer_1" xmlns="http://www.w3.org/2000/svg" xmlns:xlink="http://www.w3.org/1999/xlink" x="0px" y="0px"
	 width="623.62px" height="481.89px" viewBox="0 0 623.62 481.89" enable-background="new 0 0 623.62 481.89" xml:space="preserve">
<g>
	<rect x="312.14" y="6" fill="#FFFFFF" width="305.48" height="469.225"/>
	<path fill="#DDDCDC" d="M611.62,12v457.225H318.14V12H611.62 M623.62,0H306.14v481.225h317.48V0L623.62,0z"/>
</g>
<g>
	<rect x="6" y="5.667" fill="#FFFFFF" width="305.48" height="470.447"/>
	<path fill="#DDDCDC" d="M305.48,11.667v458.447H12V11.667H305.48 M317.48-0.333H0v482.447h317.48V-0.333L317.48-0.333z"/>
</g>
<rect x="22.333" y="24.666" fill="#DDDCDC" width="272" height="434.668"/>
<rect x="330" y="25.034" fill="#DDDCDC" width="272" height="212.598"/>
<rect x="330.803" y="247.367" fill="#DDDCDC" width="130.395" height="212.599"/>
<rect x="471.47" y="360.061" fill="#028CBA" width="130.395" height="99.212"/>
<line fill="none" stroke="#DDDCDC" stroke-width="6" stroke-miterlimit="10" x1="471.136" y1="252.997" x2="601.53" y2="252.997"/>
<line fill="none" stroke="#DDDCDC" stroke-width="6" stroke-miterlimit="10" x1="471.136" y1="346.997" x2="601.53" y2="346.997"/>
<line fill="none" stroke="#DDDCDC" stroke-width="6" stroke-miterlimit="10" x1="471.136" y1="282.997" x2="601.53" y2="282.997"/>
<line fill="none" stroke="#DDDCDC" stroke-width="6" stroke-miterlimit="10" x1="470.892" y1="325.331" x2="601.286" y2="325.331"/>
<line fill="none" stroke="#DDDCDC" stroke-width="6" stroke-miterlimit="10" x1="471.136" y1="303.997" x2="601.53" y2="303.997"/>
<line fill="none" stroke="#DDDCDC" stroke-width="6" stroke-miterlimit="10" x1="471.136" y1="335.997" x2="601.53" y2="335.997"/>
<line fill="none" stroke="#DDDCDC" stroke-width="6" stroke-miterlimit="10" x1="471.136" y1="313.997" x2="601.53" y2="313.997"/>
<line fill="none" stroke="#DDDCDC" stroke-width="6" stroke-miterlimit="10" x1="471.136" y1="292.997" x2="601.53" y2="292.997"/>
<line fill="none" stroke="#DDDCDC" stroke-width="6" stroke-miterlimit="10" x1="471.136" y1="272.997" x2="601.53" y2="272.997"/>
<line fill="none" stroke="#DDDCDC" stroke-width="6" stroke-miterlimit="10" x1="471.136" y1="262.997" x2="601.53" y2="262.997"/>
<text transform="matrix(1 0 0 1 56 263)" fill="#F1F2F2" font-family="'HelveticaNeue'" font-size="48">Full Page</text>
<text transform="matrix(1 0 0 1 364 143)" fill="#F1F2F2" font-family="'HelveticaNeue'" font-size="48">Half Page</text>
<text transform="matrix(1 0 0 1 361.3203 350)"><tspan x="0" y="0" fill="#F1F2F2" font-family="'HelveticaNeue'" font-size="48">1/4</tspan><tspan x="-20.424" y="35" fill="#F1F2F2" font-family="'HelveticaNeue'" font-size="48">Page</tspan></text>
<text transform="matrix(1 0 0 1 502.3203 408)"><tspan x="0" y="0" fill="#F1F2F2" font-family="'HelveticaNeue'" font-size="48">1/8</tspan><tspan x="-20.424" y="35" fill="#F1F2F2" font-family="'HelveticaNeue'" font-size="48">Page</tspan></text>
</svg>
